# xmcd
#
# Track frame offsets: 
#        150
#        14326
#        26881
#        38761
#        61095
#        84592
#        106825
#        123875
#        139017
#        152627
#        168085
#        189804
#        205903
#        220567
#        238024
#        255045
#        271435
#        289650
#        310218
#
# Disc length: 4406 seconds
#
# Revision: 0
# Processed by: cddbd v1.5.2PL0 Copyright (c) Steve Scherf et al.
# Submitted via: ExactAudioCopy v1.0b3
#
DISCID=f1113413
DTITLE=坂上二郎 - GOLDEN☆BEST 坂上二郎 MHCL-1918
DYEAR=1900
DGENRE=Blues
TTITLE0=係長ブルース
TTITLE1=カックラキンでぶっ飛ばせ
TTITLE2=紳士の条件
TTITLE3=9×9の唄 
TTITLE4=学校の先生
TTITLE5=鉄道員
TTITLE6=生まれたからには
TTITLE7=男の道 
TTITLE8=北の果て
TTITLE9=酒場のタンゴ
TTITLE10=親父と息子
TTITLE11=花嫁の父
TTITLE12=佐渡
TTITLE13=枕詞がたり 
TTITLE14=春子
TTITLE15=坂上二郎のすたこらさっさ 
TTITLE16=森さん
TTITLE17=森のひと 
TTITLE18=デーゲーム
EXTD=
EXTT0=
EXTT1=
EXTT2=
EXTT3=
EXTT4=
EXTT5=
EXTT6=
EXTT7=
EXTT8=
EXTT9=
EXTT10=
EXTT11=
EXTT12=
EXTT13=
EXTT14=
EXTT15=
EXTT16=
EXTT17=
EXTT18=
PLAYORDER=
